<svg width="533" height="623" viewBox="0 0 533 623" fill="none" xmlns="http://www.w3.org/2000/svg">
<path d="M60.2949 217.975C53.5999 166.665 65.1029 115.778 96.9019 74.3494C97.8379 73.1248 98.7886 71.9118 99.7539 70.7104C100.72 69.5091 101.7 68.3201 102.695 67.1434C103.69 65.9661 104.7 64.8014 105.723 63.6494C106.747 62.4967 107.785 61.3571 108.836 60.2304C109.888 59.1038 110.954 57.9904 112.033 56.8904C113.112 55.7898 114.205 54.7028 115.311 53.6294C116.417 52.5561 117.536 51.4964 118.668 50.4504C119.8 49.4044 120.945 48.3724 122.102 47.3544C123.259 46.3371 124.429 45.3341 125.612 44.3454C126.794 43.3561 127.988 42.3818 129.194 41.4224C130.401 40.4631 131.619 39.5187 132.848 38.5894C134.077 37.6594 135.318 36.7451 136.57 35.8464C137.822 34.9478 139.085 34.0644 140.359 33.1964C141.633 32.3284 142.917 31.4764 144.212 30.6404C145.507 29.8044 146.812 28.9844 148.127 28.1804C149.442 27.3764 150.766 26.5888 152.101 25.8174C153.435 25.0461 154.779 24.2914 156.132 23.5534C157.485 22.8148 158.846 22.0931 160.217 21.3884C161.588 20.6838 162.967 19.9961 164.355 19.3254C165.742 18.6548 167.138 18.0014 168.542 17.3654C169.946 16.7288 171.357 16.1098 172.776 15.5084C174.195 14.9071 175.622 14.3231 177.055 13.7564C178.488 13.1904 179.929 12.6418 181.376 12.1104C182.823 11.5798 184.276 11.0668 185.736 10.5714C187.195 10.0768 188.661 9.59976 190.132 9.14043C191.603 8.68176 193.08 8.24109 194.562 7.81842C196.045 7.39575 197.532 6.99142 199.024 6.60542C200.516 6.21942 202.013 5.85176 203.514 5.50243C205.015 5.15376 206.521 4.82343 208.03 4.51143C209.539 4.19943 211.052 3.90577 212.569 3.63043C214.086 3.35577 215.605 3.09976 217.128 2.86243C218.651 2.62576 220.177 2.40743 221.705 2.20743C223.241 2.00276 224.78 1.81676 226.321 1.64943C227.862 1.48276 229.404 1.33509 230.949 1.20642C232.494 1.07709 234.039 0.967102 235.586 0.876435C237.133 0.785768 238.682 0.714431 240.231 0.662431C241.78 0.609764 243.329 0.576425 244.879 0.562425C246.429 0.548425 247.979 0.553424 249.528 0.577424C251.078 0.601424 252.627 0.644762 254.176 0.707429C255.725 0.770095 257.272 0.851757 258.819 0.952424C260.366 1.05309 261.911 1.17277 263.454 1.31143C264.998 1.4501 266.54 1.6081 268.079 1.78543C269.619 1.9621 271.156 2.1581 272.691 2.37343C274.226 2.5881 275.758 2.82177 277.287 3.07443C278.816 3.3271 280.342 3.59877 281.865 3.88944C283.387 4.1801 284.905 4.48943 286.42 4.81743C287.935 5.14543 289.446 5.49176 290.952 5.85643C292.458 6.22176 293.959 6.60576 295.456 7.00842C296.953 7.41109 298.444 7.83177 299.931 8.27043C301.418 8.70977 302.898 9.16743 304.373 9.64343C305.848 10.1194 307.317 10.6134 308.78 11.1254C310.243 11.6374 311.699 12.1674 313.149 12.7154C314.598 13.2634 316.041 13.8294 317.477 14.4134C318.913 14.9968 320.341 15.5981 321.762 16.2174C323.183 16.8361 324.596 17.4724 326.001 18.1264C327.406 18.7804 328.803 19.4518 330.192 20.1404C331.581 20.8284 332.961 21.5338 334.332 22.2564C335.703 22.9791 337.065 23.7184 338.418 24.4744C339.771 25.2304 341.114 26.0031 342.448 26.7924C343.781 27.5824 345.105 28.3884 346.419 29.2104C347.733 30.0324 349.037 30.8704 350.33 31.7244C351.623 32.5784 352.906 33.4484 354.177 34.3344C355.449 35.2204 356.71 36.1221 357.959 37.0394C359.208 37.9561 360.446 38.8884 361.673 39.8364C362.897 40.7824 364.109 41.7438 365.31 42.7204C366.51 43.6964 367.698 44.6874 368.874 45.6934C370.05 46.6988 371.213 47.7184 372.364 48.7524C373.515 49.7871 374.653 50.8354 375.778 51.8974C376.903 52.9594 378.015 54.0354 379.113 55.1254C380.212 56.2154 381.296 57.3184 382.367 58.4344C383.438 59.5511 384.496 60.6808 385.539 61.8234C386.582 62.9661 387.612 64.1214 388.627 65.2894C389.642 66.4574 390.642 67.6377 391.627 68.8304C392.613 70.0231 393.584 71.2274 394.54 72.4434C395.496 73.6601 396.437 74.8884 397.363 76.1284C398.288 77.3684 399.199 78.6194 400.094 79.8814C400.989 81.1434 401.868 82.4164 402.731 83.7004C403.594 84.9844 404.442 86.2788 405.273 87.5834C406.105 88.8881 406.92 90.2031 407.719 91.5284C408.518 92.8531 409.301 94.1878 410.067 95.5324C410.834 96.8764 411.583 98.2298 412.316 99.5924C413.049 100.955 413.765 102.327 414.464 103.707C415.163 105.087 415.844 106.476 416.509 107.873C417.174 109.271 417.821 110.676 418.451 112.089C419.081 113.502 419.694 114.923 420.289 116.351C420.884 117.779 421.461 119.215 422.021 120.657C422.58 122.1 423.122 123.549 423.646 125.005C424.17 126.461 424.676 127.923 425.163 129.391C425.651 130.86 426.121 132.334 426.572 133.814C427.023 135.294 427.456 136.779 427.871 138.269C428.286 139.76 428.682 141.256 429.06 142.756C429.438 144.257 429.797 145.762 430.138 147.271C430.479 148.78 430.801 150.293 431.105 151.81C431.408 153.328 431.693 154.848 431.959 156.372C432.225 157.897 432.472 159.424 432.7 160.954C432.928 162.485 433.137 164.018 433.328 165.553C434.92 178.895 434.957 191.907 433.941 205.283C440.289 209.417 446.727 214.26 453.408 217.776C453.983 285.277 452.625 352.83 453.538 420.32L465.671 420.16C464.789 477.907 466.426 535.716 465.501 593.456L488.123 593.357C501.037 593.319 514.148 592.203 524.124 602.229C529.567 607.7 532.136 615.092 532.409 622.687L291.814 622.631C271.871 622.995 251.91 622.437 231.961 622.819L203.201 622.73C184.662 622.277 166.014 622.702 147.464 622.705L147.459 593.486L147.428 589.968C146.385 584.22 147.024 577.538 147.027 571.673L147.125 535.918L113.641 535.94C120.375 522.165 130.849 506.602 138.848 493.13C141.692 488.341 144.816 483.558 147.147 478.496C147.297 459.245 146.1 439.387 147.454 420.216C156.395 420.082 165.355 420.189 174.298 420.177C172.93 401.197 173.93 381.486 174.118 362.423C154.978 356.382 131.345 338.84 117.024 325.42L117.014 280.775C117.023 270.064 118.176 257.892 115.652 247.446C115.453 246.593 115.224 245.747 114.967 244.909C114.71 244.071 114.424 243.243 114.11 242.424C113.796 241.606 113.454 240.799 113.085 240.004C112.716 239.209 112.32 238.427 111.898 237.659C111.475 236.891 111.027 236.139 110.552 235.401C110.078 234.664 109.579 233.944 109.056 233.24C108.533 232.537 107.986 231.853 107.416 231.187C106.846 230.521 106.254 229.876 105.639 229.25C92.9429 216.495 76.9369 217.966 60.2949 217.975Z" fill="url(#paint0_linear_129007_1908)"/>
<path d="M174.13 218.134L246.46 168.251C270.499 184.818 295.065 200.917 318.677 218.069L318.763 420.361L291.968 420.385C292.019 439.876 292.489 459.486 291.982 478.964C277.228 478.949 149.428 479.736 147.147 478.496C147.297 459.245 146.1 439.387 147.454 420.216C156.395 420.082 165.355 420.189 174.298 420.177C172.93 401.197 173.93 381.486 174.118 362.423C174.48 314.378 174.828 266.171 174.13 218.134Z" fill="#C5DA58"/>
<path d="M260.909 333.644L289.815 333.645L289.812 391.367L260.945 391.348L260.909 333.644Z" fill="url(#paint1_linear_129007_1908)"/>
<path d="M203.156 333.651L231.958 333.634L231.968 391.386L203.176 391.349L203.156 333.651Z" fill="url(#paint2_linear_129007_1908)"/>
<path d="M272.505 247.156C273.316 247.099 274.127 247.063 274.94 247.048C278.939 247.004 282.652 248.354 285.446 251.273C287.479 253.395 288.776 256.253 289.38 259.105C291.136 267.395 289.818 294.402 289.818 304.686L279.553 304.649L260.9 304.67C260.853 294.32 258.862 262.454 263.069 254.434C265.236 250.303 268.2 248.596 272.505 247.156Z" fill="url(#paint3_linear_129007_1908)"/>
<path d="M215.169 247.107C215.505 247.09 215.841 247.068 216.177 247.055C220.399 246.889 224.327 247.957 227.381 250.999C229.79 253.398 231.089 256.565 231.688 259.866C232.675 265.308 232.091 271.522 232.051 277.083L231.972 304.704L221.545 304.65L203.167 304.657C203.176 294.022 200.969 261.897 205.572 253.899C207.834 249.969 210.915 248.294 215.169 247.107Z" fill="url(#paint4_linear_129007_1908)"/>
<path d="M258.15 535.858C269.393 516.859 280.427 497.699 291.926 478.857C292.245 526.703 292.926 574.806 291.814 622.631C271.871 622.995 251.91 622.437 231.961 622.819L203.201 622.73C184.662 622.277 166.014 622.702 147.464 622.705L147.459 593.486L147.428 589.968C147.388 571.995 146.823 553.83 147.473 535.88L258.15 535.858Z" fill="#C5DA58"/>
<path d="M203.157 564.671L231.962 564.667L231.961 622.819L203.201 622.73L203.157 564.671Z" fill="url(#paint5_linear_129007_1908)"/>
<path d="M60.2949 217.975C76.9369 217.966 92.9429 216.495 105.639 229.25C106.254 229.875 106.846 230.521 107.416 231.187C107.986 231.852 108.533 232.537 109.056 233.24C109.579 233.943 110.078 234.664 110.552 235.401C111.027 236.138 111.475 236.891 111.898 237.659C112.32 238.427 112.716 239.209 113.085 240.004C113.454 240.799 113.796 241.605 114.11 242.424C114.424 243.243 114.71 244.071 114.967 244.909C115.224 245.747 115.453 246.593 115.652 247.446C118.176 257.892 117.023 270.064 117.014 280.775L117.024 325.42L117.057 449.227L117.1 481.989C117.11 489.356 117.608 497.184 116.265 504.451C116.095 505.394 115.889 506.33 115.648 507.257C115.407 508.184 115.13 509.101 114.819 510.007C114.508 510.914 114.162 511.807 113.783 512.687C113.404 513.567 112.992 514.431 112.547 515.28C112.102 516.129 111.626 516.959 111.117 517.771C110.609 518.584 110.071 519.376 109.502 520.147C108.934 520.918 108.337 521.667 107.711 522.393C107.086 523.119 106.434 523.82 105.755 524.497C94.4389 535.921 81.0089 535.973 65.9809 535.924L65.9889 605.78C65.8702 611.403 65.8542 617.026 65.9409 622.649L55.6109 622.585C54.5429 593.823 55.4529 564.685 55.4399 535.886C39.7599 536.048 24.6629 536.589 12.6779 524.761C4.02588 516.223 1.31087 505.126 1.15487 493.344C0.426869 438.476 1.13587 383.514 1.11987 328.635L1.11687 279.114C1.11887 269.778 0.341878 259.571 1.83288 250.363C3.14688 242.253 6.77287 235.127 12.5599 229.282C25.6729 216.039 43.1599 217.915 60.2949 217.975Z" fill="#C5DA58"/>
<path d="M65.9891 605.78C67.0401 604.267 68.1461 602.892 69.4721 601.605C73.3701 597.822 78.4541 595.498 83.7001 594.298C91.8331 592.439 101.225 593.336 109.573 593.351L147.459 593.486L147.464 622.705C120.421 621.685 93.0171 622.625 65.9411 622.649C65.8544 617.026 65.8704 611.403 65.9891 605.78Z" fill="url(#paint6_linear_129007_1908)"/>
<defs>
<linearGradient id="paint0_linear_129007_1908" x1="295.435" y1="0.554687" x2="295.435" y2="622.819" gradientUnits="userSpaceOnUse">
<stop stop-color="#8BA7A6"/>
<stop offset="1" stop-color="#A4BC29"/>
</linearGradient>
<linearGradient id="paint1_linear_129007_1908" x1="275.362" y1="333.644" x2="275.362" y2="391.367" gradientUnits="userSpaceOnUse">
<stop stop-color="#92A725"/>
<stop offset="1" stop-color="#92A725"/>
</linearGradient>
<linearGradient id="paint2_linear_129007_1908" x1="217.562" y1="333.634" x2="217.562" y2="391.386" gradientUnits="userSpaceOnUse">
<stop stop-color="#92A725"/>
<stop offset="1" stop-color="#92A725"/>
</linearGradient>
<linearGradient id="paint3_linear_129007_1908" x1="275.341" y1="247.047" x2="275.341" y2="304.686" gradientUnits="userSpaceOnUse">
<stop stop-color="#92A725"/>
<stop offset="1" stop-color="#92A725"/>
</linearGradient>
<linearGradient id="paint4_linear_129007_1908" x1="217.452" y1="247.038" x2="217.452" y2="304.704" gradientUnits="userSpaceOnUse">
<stop stop-color="#92A725"/>
<stop offset="1" stop-color="#92A725"/>
</linearGradient>
<linearGradient id="paint5_linear_129007_1908" x1="217.559" y1="564.667" x2="217.559" y2="622.819" gradientUnits="userSpaceOnUse">
<stop stop-color="#92A725"/>
<stop offset="1" stop-color="#92A725"/>
</linearGradient>
<linearGradient id="paint6_linear_129007_1908" x1="106.675" y1="593.122" x2="106.675" y2="622.705" gradientUnits="userSpaceOnUse">
<stop stop-color="#92A725"/>
<stop offset="1" stop-color="#92A725"/>
</linearGradient>
</defs>
</svg>
